<svg width="122" height="99" viewBox="0 0 122 99" fill="none" xmlns="http://www.w3.org/2000/svg">
<path d="M17.6875 85.5C17.5208 89.2917 12.9167 91.6042 3.875 92.4375C3.54167 93.1042 3.54167 94.0833 3.875 95.375C11.75 95.125 17.3333 95 20.625 95C25.8333 95 31.7708 95.125 38.4375 95.375C38.7708 94.0833 38.7708 93.1042 38.4375 92.4375C29.3125 91.6042 24.7083 89.2917 24.625 85.5C24.2083 72.5417 24 61.25 24 51.625C24 38.4583 24.1667 26.8125 24.5 16.6875H25.125L55.625 93.4375H56.25L84.75 18.1875H85.3125C85.7292 30.7292 85.9375 41.875 85.9375 51.625C85.9375 65.1667 85.7292 76.7292 85.3125 86.3125C85.2292 87.3958 84.7292 88.3333 83.8125 89.125C82.9375 89.875 81.625 90.4792 79.875 90.9375C78.125 91.3542 76.6458 91.6458 75.4375 91.8125C74.2292 91.9792 72.6875 92.1458 70.8125 92.3125C70.4792 92.9792 70.4792 93.9583 70.8125 95.25C77.8958 95 85.1458 94.875 92.5625 94.875C101.438 94.875 109.979 95 118.188 95.25C118.521 94.5 118.521 93.5208 118.188 92.3125C104.354 91.4792 97.3958 89.5208 97.3125 86.4375C96.8125 73.3542 96.5625 60.2083 96.5625 47C96.5625 34.2083 96.7292 22.5625 97.0625 12.0625C97.1458 8.97917 104.104 7.02083 117.938 6.1875C118.271 4.97917 118.271 4 117.938 3.25C109.729 3.5 98.8125 3.625 85.1875 3.625L58.5625 73.125L32.9375 3.625C22.7708 3.625 13.7708 3.45833 5.9375 3.125C5.52083 3.95833 5.52083 4.75 5.9375 5.5C10.8958 6.20833 14.125 7.25 15.625 8.625C17.1667 9.95833 17.9792 13.0625 18.0625 17.9375C18.3542 28.1875 18.5 37.875 18.5 47C18.5 59.625 18.2292 72.4583 17.6875 85.5ZM15.125 85.5C15.6667 72.375 15.9375 59.5417 15.9375 47C15.9375 37.875 15.7917 28.1875 15.5 17.9375C15.4167 14.1042 14.6667 11.6458 13.25 10.5625C11.875 9.4375 8.875 8.5625 4.25 7.9375C3.08333 5.39583 3.125 2.89583 4.375 0.4375C13.9583 0.854167 26.4167 1.0625 41.75 1.0625L62.25 55.8125L83.375 1.0625C94.5417 1.0625 106.875 0.895833 120.375 0.5625C121.208 3.27083 121.292 5.95833 120.625 8.625C111.417 9.54167 106.771 10.7708 106.688 12.3125C106.312 20.1458 106.125 31.7083 106.125 47C106.125 62.7917 106.396 75.8542 106.938 86.1875C107.021 87.7292 111.667 88.9583 120.875 89.875C121.542 92.5417 121.458 95.2292 120.625 97.9375C107.125 97.6042 99.2708 97.4375 97.0625 97.4375C93.7292 97.4375 84.3958 97.6042 69.0625 97.9375C68.0208 95.0208 68.0208 92.3333 69.0625 89.875C78.1042 88.9583 82.6667 87.7708 82.75 86.3125C83.1667 76.5625 83.375 65 83.375 51.625C83.375 41.2083 83.3333 33.5625 83.25 28.6875L58 96H53.8125L26.5625 27.3125V51.625C26.5625 61.25 26.7708 72.5417 27.1875 85.5C27.2708 87.75 31.8333 89.25 40.875 90C41.9167 92.5 41.9167 95.1875 40.875 98.0625C28.4167 97.5625 15.4792 97.5625 2.0625 98.0625C1.0625 95.1875 1.0625 92.5 2.0625 90C10.6875 89.1667 15.0417 87.6667 15.125 85.5Z" fill="#005203"/>
</svg>
